<mxfile host="app.diagrams.net" agent="Mozilla/5.0 (Macintosh; Intel Mac OS X 10_15_7) AppleWebKit/537.36 (KHTML, like Gecko) Chrome/128.0.0.0 Safari/537.36" version="24.7.6">
  <diagram name="Page-1" id="ts9NFnpTG7dS4-9Dg_9j">
    <mxGraphModel dx="2074" dy="1145" grid="1" gridSize="10" guides="1" tooltips="1" connect="1" arrows="1" fold="1" page="1" pageScale="1" pageWidth="827" pageHeight="1169" math="0" shadow="0">
      <root>
        <mxCell id="0" />
        <mxCell id="1" parent="0" />
        <mxCell id="Ks2BoS36gu0r_nbeEw-F-6" value="" style="rounded=0;whiteSpace=wrap;html=1;fillColor=#ffe6cc;strokeColor=#d79b00;" vertex="1" parent="1">
          <mxGeometry x="74" y="40" width="670" height="230" as="geometry" />
        </mxCell>
        <mxCell id="Ks2BoS36gu0r_nbeEw-F-1" value="" style="rounded=0;whiteSpace=wrap;html=1;fillColor=#d5e8d4;strokeColor=#82b366;" vertex="1" parent="1">
          <mxGeometry x="74" y="276" width="670" height="630" as="geometry" />
        </mxCell>
        <mxCell id="VPAmSWmuDgrEm8eVRnfg-3" value="" style="edgeStyle=orthogonalEdgeStyle;rounded=0;orthogonalLoop=1;jettySize=auto;html=1;" parent="1" source="VPAmSWmuDgrEm8eVRnfg-1" target="VPAmSWmuDgrEm8eVRnfg-2" edge="1">
          <mxGeometry relative="1" as="geometry" />
        </mxCell>
        <mxCell id="VPAmSWmuDgrEm8eVRnfg-1" value="Initiate&lt;div&gt;Rootless Docker&lt;/div&gt;" style="rounded=0;whiteSpace=wrap;html=1;" parent="1" vertex="1">
          <mxGeometry x="479" y="281" width="120" height="40" as="geometry" />
        </mxCell>
        <mxCell id="VPAmSWmuDgrEm8eVRnfg-13" value="" style="edgeStyle=orthogonalEdgeStyle;rounded=0;orthogonalLoop=1;jettySize=auto;html=1;" parent="1" source="VPAmSWmuDgrEm8eVRnfg-2" target="VPAmSWmuDgrEm8eVRnfg-12" edge="1">
          <mxGeometry relative="1" as="geometry" />
        </mxCell>
        <mxCell id="VPAmSWmuDgrEm8eVRnfg-2" value="Load Docker Image&lt;br&gt;(Untar)" style="rounded=0;whiteSpace=wrap;html=1;" parent="1" vertex="1">
          <mxGeometry x="479" y="361" width="120" height="60" as="geometry" />
        </mxCell>
        <mxCell id="VPAmSWmuDgrEm8eVRnfg-5" value="" style="edgeStyle=orthogonalEdgeStyle;rounded=0;orthogonalLoop=1;jettySize=auto;html=1;" parent="1" source="VPAmSWmuDgrEm8eVRnfg-4" target="VPAmSWmuDgrEm8eVRnfg-1" edge="1">
          <mxGeometry relative="1" as="geometry" />
        </mxCell>
        <mxCell id="VPAmSWmuDgrEm8eVRnfg-4" value="/bootcamp_workspace/$USER&lt;br&gt;&amp;amp;&lt;div&gt;Untar notebooks (very small file)&lt;/div&gt;" style="rounded=0;whiteSpace=wrap;html=1;" parent="1" vertex="1">
          <mxGeometry x="444" y="145" width="190" height="60" as="geometry" />
        </mxCell>
        <mxCell id="VPAmSWmuDgrEm8eVRnfg-8" value="" style="edgeStyle=orthogonalEdgeStyle;rounded=0;orthogonalLoop=1;jettySize=auto;html=1;" parent="1" source="VPAmSWmuDgrEm8eVRnfg-6" target="VPAmSWmuDgrEm8eVRnfg-7" edge="1">
          <mxGeometry relative="1" as="geometry" />
        </mxCell>
        <mxCell id="VPAmSWmuDgrEm8eVRnfg-6" value="&lt;div&gt;&lt;br&gt;&lt;/div&gt;&lt;div&gt;&lt;br&gt;&lt;/div&gt;&lt;div&gt;&lt;br&gt;&lt;/div&gt;NIM Docker Image&lt;div&gt;&lt;br&gt;&lt;/div&gt;&lt;div&gt;Jupyter Notebooks&lt;/div&gt;" style="shape=cylinder;whiteSpace=wrap;html=1;" parent="1" vertex="1">
          <mxGeometry x="208" y="85" width="120" height="180" as="geometry" />
        </mxCell>
        <mxCell id="VPAmSWmuDgrEm8eVRnfg-7" value="" style="shape=waypoint;sketch=0;size=6;pointerEvents=1;points=[];fillColor=default;resizable=0;rotatable=0;perimeter=centerPerimeter;snapToPoint=1;" parent="1" vertex="1">
          <mxGeometry x="434" y="165" width="20" height="20" as="geometry" />
        </mxCell>
        <mxCell id="VPAmSWmuDgrEm8eVRnfg-9" value="COPY" style="text;html=1;align=center;verticalAlign=middle;resizable=0;points=[];autosize=1;strokeColor=none;fillColor=none;" parent="1" vertex="1">
          <mxGeometry x="354" y="155" width="60" height="30" as="geometry" />
        </mxCell>
        <mxCell id="VPAmSWmuDgrEm8eVRnfg-10" value="Shared Read Only Space&lt;div&gt;/bootcamp_cont/&lt;/div&gt;" style="text;html=1;align=center;verticalAlign=middle;whiteSpace=wrap;rounded=0;" parent="1" vertex="1">
          <mxGeometry x="168" y="45" width="200" height="30" as="geometry" />
        </mxCell>
        <mxCell id="VPAmSWmuDgrEm8eVRnfg-15" value="" style="edgeStyle=orthogonalEdgeStyle;rounded=0;orthogonalLoop=1;jettySize=auto;html=1;entryX=0;entryY=0.5;entryDx=0;entryDy=0;" parent="1" source="VPAmSWmuDgrEm8eVRnfg-11" target="VPAmSWmuDgrEm8eVRnfg-12" edge="1">
          <mxGeometry relative="1" as="geometry" />
        </mxCell>
        <mxCell id="VPAmSWmuDgrEm8eVRnfg-11" value="shared space:&lt;br&gt;/mnt/lustre/python_env/" style="shape=cube;whiteSpace=wrap;html=1;boundedLbl=1;backgroundOutline=1;darkOpacity=0.05;darkOpacity2=0.1;" parent="1" vertex="1">
          <mxGeometry x="177.5" y="441" width="181" height="100" as="geometry" />
        </mxCell>
        <mxCell id="VPAmSWmuDgrEm8eVRnfg-19" value="" style="edgeStyle=orthogonalEdgeStyle;rounded=0;orthogonalLoop=1;jettySize=auto;html=1;" parent="1" source="VPAmSWmuDgrEm8eVRnfg-12" target="VPAmSWmuDgrEm8eVRnfg-18" edge="1">
          <mxGeometry relative="1" as="geometry" />
        </mxCell>
        <mxCell id="VPAmSWmuDgrEm8eVRnfg-12" value="Activate Conda Env" style="rounded=0;whiteSpace=wrap;html=1;" parent="1" vertex="1">
          <mxGeometry x="479" y="461" width="120" height="60" as="geometry" />
        </mxCell>
        <mxCell id="VPAmSWmuDgrEm8eVRnfg-16" value="shared space:&lt;br&gt;/mnt/lustre/python_env/" style="shape=cube;whiteSpace=wrap;html=1;boundedLbl=1;backgroundOutline=1;darkOpacity=0.05;darkOpacity2=0.1;" parent="1" vertex="1">
          <mxGeometry x="177.5" y="441" width="181" height="100" as="geometry" />
        </mxCell>
        <mxCell id="VPAmSWmuDgrEm8eVRnfg-20" value="" style="edgeStyle=orthogonalEdgeStyle;rounded=0;orthogonalLoop=1;jettySize=auto;html=1;" parent="1" source="VPAmSWmuDgrEm8eVRnfg-17" target="VPAmSWmuDgrEm8eVRnfg-18" edge="1">
          <mxGeometry relative="1" as="geometry" />
        </mxCell>
        <mxCell id="VPAmSWmuDgrEm8eVRnfg-17" value="shared space:&lt;br&gt;/mnt/lustre/docker-strg/profile_cache/" style="shape=cube;whiteSpace=wrap;html=1;boundedLbl=1;backgroundOutline=1;darkOpacity=0.05;darkOpacity2=0.1;" parent="1" vertex="1">
          <mxGeometry x="98.5" y="561" width="224.5" height="100" as="geometry" />
        </mxCell>
        <mxCell id="VPAmSWmuDgrEm8eVRnfg-23" value="" style="edgeStyle=orthogonalEdgeStyle;rounded=0;orthogonalLoop=1;jettySize=auto;html=1;" parent="1" source="VPAmSWmuDgrEm8eVRnfg-18" target="VPAmSWmuDgrEm8eVRnfg-22" edge="1">
          <mxGeometry relative="1" as="geometry" />
        </mxCell>
        <mxCell id="VPAmSWmuDgrEm8eVRnfg-18" value="/bootcamp_workspace/$USER/.cache/nims" style="rounded=0;whiteSpace=wrap;html=1;" parent="1" vertex="1">
          <mxGeometry x="416.5" y="581" width="245" height="60" as="geometry" />
        </mxCell>
        <mxCell id="VPAmSWmuDgrEm8eVRnfg-21" value="SYMLINK" style="text;html=1;align=center;verticalAlign=middle;resizable=0;points=[];autosize=1;strokeColor=none;fillColor=none;" parent="1" vertex="1">
          <mxGeometry x="328" y="589" width="80" height="30" as="geometry" />
        </mxCell>
        <mxCell id="VPAmSWmuDgrEm8eVRnfg-25" value="" style="edgeStyle=orthogonalEdgeStyle;rounded=0;orthogonalLoop=1;jettySize=auto;html=1;" parent="1" source="VPAmSWmuDgrEm8eVRnfg-22" target="VPAmSWmuDgrEm8eVRnfg-24" edge="1">
          <mxGeometry relative="1" as="geometry" />
        </mxCell>
        <mxCell id="VPAmSWmuDgrEm8eVRnfg-22" value="Find a free PORT" style="rounded=0;whiteSpace=wrap;html=1;" parent="1" vertex="1">
          <mxGeometry x="490.25" y="681" width="97.5" height="60" as="geometry" />
        </mxCell>
        <mxCell id="VPAmSWmuDgrEm8eVRnfg-24" value="Launch JupyterLab" style="rounded=0;whiteSpace=wrap;html=1;" parent="1" vertex="1">
          <mxGeometry x="490.25" y="791" width="97.5" height="60" as="geometry" />
        </mxCell>
        <mxCell id="VPAmSWmuDgrEm8eVRnfg-29" value="" style="verticalLabelPosition=bottom;verticalAlign=top;html=1;shape=mxgraph.basic.x;labelBackgroundColor=#a21515;fillColor=#d92f26;strokeColor=#b85450;" parent="1" vertex="1">
          <mxGeometry x="604" y="361" width="20" height="20" as="geometry" />
        </mxCell>
        <mxCell id="VPAmSWmuDgrEm8eVRnfg-30" value="" style="verticalLabelPosition=bottom;verticalAlign=top;html=1;shape=mxgraph.basic.x;labelBackgroundColor=#a21515;fillColor=#d92f26;strokeColor=#b85450;" parent="1" vertex="1">
          <mxGeometry x="641.5" y="145" width="20" height="20" as="geometry" />
        </mxCell>
        <mxCell id="Ks2BoS36gu0r_nbeEw-F-2" value="SBATCH JOB" style="text;html=1;align=center;verticalAlign=middle;resizable=0;points=[];autosize=1;strokeColor=none;fillColor=none;" vertex="1" parent="1">
          <mxGeometry x="654" y="876" width="100" height="30" as="geometry" />
        </mxCell>
      </root>
    </mxGraphModel>
  </diagram>
</mxfile>
